<?xml version="1.0" encoding="utf-8"?>
<!-- Generator: Adobe Illustrator 23.0.0, SVG Export Plug-In . SVG Version: 6.00 Build 0)  -->
<svg version="1.1" id="Layer_1" xmlns="http://www.w3.org/2000/svg" xmlns:xlink="http://www.w3.org/1999/xlink" x="0px" y="0px"
	 viewBox="0 0 423 465" style="enable-background:new 0 0 423 465;" xml:space="preserve">
<style type="text/css">
	.st0{clip-path:url(#SVGID_2_);}
	.st1{fill:#FFFFFF;}
	.st2{fill:none;stroke:#707070;}
	.st3{fill:#F4F5F5;}
	.st4{fill:none;stroke:#F4F5F5;}
	.st5{font-family:'ArialMT';}
	.st6{font-size:18px;}
	.st7{fill:#F05D5D;}
	.st8{fill:#FCFCFC;}
	.st9{fill:#FF0606;}
	.st10{font-family:'Arial-BoldMT';}
	.st11{font-size:20px;}
	.st12{fill:#3A77BC;}
	.st13{fill:#3F68B1;}
	.st14{fill:#A0616A;}
	.st15{fill:#D0CDE1;}
	.st16{fill:#2F2E41;}
	.st17{fill:#6C63FF;}
	.st18{fill:#3F3D56;}
	.st19{fill:none;stroke:#D0CDE1;stroke-width:2;stroke-miterlimit:10;}
</style>
<g>
	<defs>
		<rect id="SVGID_1_" x="-2" y="-72" width="436" height="600"/>
	</defs>
	<clipPath id="SVGID_2_">
		<use xlink:href="#SVGID_1_"  style="overflow:visible;"/>
	</clipPath>
	<g id="Web_1920_1" class="st0">
		<polygon class="st1" points="5,0 428,-1 428,465 5,465 		"/>
		<g id="Rectangle_43" transform="translate(43 97)">
			<path class="st1" d="M66-72h212c37.6,0,68,30.4,68,68v290c0,37.6-30.4,68-68,68H66c-37.6,0-68-30.4-68-68V-4
				C-2-41.6,28.4-72,66-72z"/>
			<path class="st2" d="M66-71.5h212c37.3,0,67.5,30.2,67.5,67.5v290c0,37.3-30.2,67.5-67.5,67.5H66c-37.3,0-67.5-30.2-67.5-67.5V-4
				C-1.5-41.3,28.7-71.5,66-71.5z"/>
		</g>
		<g id="Rectangle_44" transform="translate(95 211)">
			<path class="st3" d="M21-72h195c12.7,0,23,10.3,23,23v165c0,12.7-10.3,23-23,23H21c-12.7,0-23-10.3-23-23V-49
				C-2-61.7,8.3-72,21-72z"/>
			<path class="st4" d="M21-71.5h195c12.4,0,22.5,10.1,22.5,22.5v165c0,12.4-10.1,22.5-22.5,22.5H21c-12.4,0-22.5-10.1-22.5-22.5
				V-49C-1.5-61.4,8.6-71.5,21-71.5z"/>
		</g>
		<text transform="matrix(1 0 0 1 146 128)" class="st5 st6">Mareya Holee</text>
		<ellipse id="Ellipse_43" class="st7" cx="63" cy="74.5" rx="50" ry="51.5"/>
		<path id="eye" class="st8" d="M88,76.4c0-0.3-0.1-0.6-0.2-0.8c-5-8.2-14.5-13.8-25.5-13.8c-11.1,0-20.8,5.7-25.7,14.2
			c-0.4,0.7-0.4,1.6,0,2.3c4.9,8.4,14.6,14.2,25.7,14.2c10.4,0,19.5-5,24.7-12.6c0.7-1,1-2.1,1-3.3V76.4z M61.9,88.6
			c-7.2,0-13-5.1-13-11.5s5.8-11.5,13-11.5s13,5.1,13,11.5S69.1,88.6,61.9,88.6z M61.9,69L61.9,69c-1,0-1.8,0.8-1.5,1.8
			c0.3,1.2-0.1,2.6-1.1,3.4c0,0,0,0,0,0c-1.1,1-2.6,1.3-4,1c-1-0.2-1.9,0.6-1.9,1.6c0.1,2.5,1.5,4.8,3.8,6.1c3.1,1.8,7,1.7,10.1-0.3
			c2.9-1.8,4.1-5.4,2.9-8.5C68.7,70.9,65.4,68.9,61.9,69L61.9,69z"/>
		<text transform="matrix(1 0 0 1 99 132)" class="st9 st10 st11">Like</text>
		<path id="Rectangle_45" class="st3" d="M141,82h85c2.2,0,4,1.8,4,4l0,0c0,2.2-1.8,4-4,4h-85c-2.2,0-4-1.8-4-4l0,0
			C137,83.8,138.8,82,141,82z"/>
		<path id="Rectangle_46" class="st3" d="M142,96h138c1.2,0,3,1.8,3,4l0,0c0,2.2-1.8,4-4,4H141c-2.2,0-4-1.8-4-4l0,0
			C137,97.8,138.8,96,142,96z"/>
		<path id="eye-2" class="st8" d="M57.1,304.9c-3-6.7-9.1-11.2-16-11.2s-12.9,4.5-16,11.2c-0.3,0.6-0.3,1.3,0,1.9
			c3,6.7,9.1,11.2,16,11.2s12.9-4.5,16-11.2C57.4,306.2,57.4,305.5,57.1,304.9L57.1,304.9z M41.2,315c-4.5,0-8.1-4.1-8.1-9.1
			s3.6-9.1,8.1-9.1s8.1,4.1,8.1,9.1S45.6,315,41.2,315z M41.2,299.8c-0.5,0-1,0.1-1.4,0.2c0.8,1.2,5.6,9.5,4.7,10.6
			c-0.9,1-7.4-5.5-8.4-6.4c0,0,0,0,0,0c-0.6,2.4,0.2,5,2.2,6.6c1.9,1.5,4.5,1.4,6.3-0.2c1.9-1.7,2.6-4.4,1.8-6.8
			C45.7,301.5,43.6,299.8,41.2,299.8L41.2,299.8z"/>
		<ellipse id="Ellipse_46" class="st3" cx="157.5" cy="365" rx="9.5" ry="10"/>
		<ellipse id="Ellipse_47" class="st3" cx="193.5" cy="365" rx="9.5" ry="10"/>
		<ellipse id="Ellipse_48" class="st3" cx="313.5" cy="365" rx="9.5" ry="10"/>
		<path id="Rectangle_47" class="st3" d="M115,381h85c2.2,0,4,1.8,4,4l0,0c0,2.2-1.8,4-4,4h-85c-2.2,0-4-1.8-4-4l0,0
			C111,382.8,112.8,381,115,381z"/>
		<path id="Rectangle_48" class="st3" d="M214,381h49c2.2,0,4,1.8,4,4l0,0c0,2.2-1.8,4-4,4h-49c-2.2,0-4-1.8-4-4l0,0
			C210,382.8,211.8,381,214,381z"/>
		<path id="Path_17" class="st3" d="M115,395h56c2.2,0,4,1.8,4,4s-1.8,4-4,4h-56c-2.2,0-4-1.8-4-4S112.8,395,115,395z"/>
		<path id="Rectangle_49" class="st3" d="M190,395h75c2.2,0,4,1.8,4,4l0,0c0,2.2-1.8,4-4,4h-75c-2.2,0-4-1.8-4-4l0,0
			C186,396.8,187.8,395,190,395z"/>
	</g>
</g>
<path class="st12" d="M191,203c4.1-5.9,6.1-8.9,6-9c-0.2-0.2-9.2,11.8-27,36"/>
<path class="st13" d="M197,157c32,6,64,12,96,18"/>
<ellipse class="st14" cx="236" cy="172.5" rx="27.6" ry="24"/>
<path class="st14" d="M215.5,184.5c0,0,5.2,34.1-2.8,38c-8,3.8,47.5,4.2,47.5,4.2s-12.4-29.6-6.8-38.7L215.5,184.5z"/>
<path class="st15" d="M300.8,226.9l-4.6,18.3l-9.8,38.8l-0.3,2.1l-3.4,24.6l-2.2,16.3l-1.5,11c-9.1,4.1-15.8,6.9-15.8,6.9
	s-0.6-2.5-1.5-5.7c-6.4,1.7-18.3,4.5-28.3,5c3.7,3.6,5.3,6.9,3.1,9.4c-6.9,7.4-35.3-8.1-45.3-14c-0.2,1.4-0.3,2.8-0.3,4.2l-7.6-5.1
	l0.8-11.7l1.3-19.9l1.6-24.9c-0.5-1.1-0.9-2.2-1.3-3.3c-2.3-7.2-5.2-21.7-7.3-33.8c-1.7-9.7-3.1-18-3.3-19.7c0-0.2-0.1-0.3-0.1-0.3
	l42.1-16.2c3,6.1,17,7.9,17,7.9c11.6-0.7,20.7-6,20.7-6L300.8,226.9z"/>
<path class="st14" d="M266.4,338c0,0-1.8,0.5-4.7,1.3c-6.4,1.7-18.3,4.5-28.3,5c-8.7,0.5-16-0.7-17.3-5.6c-0.6-2.1,0.2-3.9,2-5.3
	c5.3-4.3,19.1-5.8,30.1-6.3c3.1-0.1,6-0.2,8.3-0.2c4,0,6.7,0,6.7,0l0.1,0.2L266.4,338z"/>
<path class="st16" d="M213.1,149.8L208,148c0,0,10.8-10.3,25.8-9.4l-4.2-4c0,0,10.3-3.6,19.7,5.8c4.9,5,10.6,10.8,14.2,17.4h5.5
	l-2.3,4.4l8.1,4.4l-8.3-0.8c0.5,2.4,0.6,4.9,0.2,7.3c-0.4,2.4-1.8,4.7-4,6.2l0,0c0,0-6.4-11.5-6.4-13.3v4.5c0,0-5.2-4-5.2-6.7
	l-2.8,3.1l-1.4-4.9l-17.3,4.9l2.8-4l-10.8,1.3l4.2-4.9c0,0-12.2,5.8-12.6,10.8c-0.5,4.9-4,9.6-4,9.6S199.5,156.5,213.1,149.8z"/>
<path class="st15" d="M330.7,311.2c-2.8,2.7-9.8,6.7-18.2,11c-3.1,1.6-6.5,3.3-9.9,4.9c-8.1,3.9-16.6,7.8-23.7,11
	c-9.1,4.1-15.8,6.9-15.8,6.9s-0.6-2.5-1.5-5.7c-1.2-4.3-3.1-9.8-5-12.2c-0.1-0.1-0.1-0.2-0.2-0.2c-0.6-0.6-1.1-1-1.7-1l27.9-15.1
	l12.1-6.5l-8.7-18.1l-10.9-22.7l6.6-18.2l6.6-18.3h12.4c0,0,4.1,7.8,9.3,18.7c0.8,1.6,1.6,3.3,2.4,5.1
	C323.3,273.5,336.8,305.5,330.7,311.2z"/>
<path class="st14" d="M236.5,353.7c-6.9,7.4-35.3-8.1-45.3-14c-2.2-1.3-3.5-2.1-3.5-2.1l9.1-10.6l2.9-3.4c0,0,2.6,1.2,6.4,3.1
	c0.1,0.1,0.3,0.1,0.4,0.2c3.3,1.7,7.4,3.9,11.6,6.3c5.7,3.4,11.6,7.3,15.3,10.9C237,347.9,238.7,351.2,236.5,353.7z"/>
<path class="st15" d="M206.1,326.9c-1,0-2,0.1-3,0.2c-8.6,1.3-11.2,8.1-11.9,12.7c-0.2,1.4-0.3,2.8-0.3,4.2l-7.6-5.1l-2.8-1.9
	c-6.7-2-12.6-5.6-17.8-9.9c-4.5-3.8-8.5-7.9-12-12.4c-3.5-4.4-6.6-9-9.3-13.9c-1.5-2.7-1.6-5.9-0.2-8.6l9.4-18.3l13.8-26.8
	c0.1-0.6,0.2-1.3,0.3-1.9c2.7-13.7,10.1-19.7,10.1-19.7h5.6l3.7,19.7l4.6,24.5l-3.3,9.3l-7.5,21.4l7.2,6.8L206.1,326.9z"/>
<path class="st17" d="M212.4,269.7l4.8,4.9c1.8-0.3,3.6-0.6,5.5-1l-1.4-3.8l3.4,3.4c20.2-4.3,45.3-12.8,45.3-12.8
	s-27.1,1.7-47.3-2.1c-8.9-1.7-18.2,2.2-21.8,9.5c-2.1,4.3-1.8,7.9,5.8,7.9c2.6,0,5.1-0.2,7.6-0.6L212.4,269.7z"/>
<path class="st18" d="M321.4,349.7v2c0,0.5-0.1,1.1-0.3,1.6c-0.1,0.2-0.2,0.4-0.4,0.7c-0.9,1.3-2.6,2.1-4.3,2.1H149
	c-1.8,0-3.4-0.8-4.3-2.1c-0.1-0.2-0.3-0.4-0.4-0.7c-0.2-0.5-0.3-1-0.3-1.6v-2c0-2.4,2.3-4.4,5-4.4c0,0,0,0,0,0h9.6v-0.9
	c0-0.1,0.1-0.2,0.2-0.2c0,0,0,0,0,0h5c0.1,0,0.2,0.1,0.2,0.2c0,0,0,0,0,0v0.9h3.1v-0.9c0-0.1,0.1-0.2,0.2-0.2c0,0,0,0,0,0h5
	c0.1,0,0.2,0.1,0.2,0.2c0,0,0,0,0,0v0.9h3.1v-0.9c0-0.1,0.1-0.2,0.2-0.2c0,0,0,0,0,0h5c0.1,0,0.2,0.1,0.2,0.2c0,0,0,0,0,0v0.9h3.1
	v-0.9c0-0.1,0.1-0.2,0.2-0.2c0,0,0,0,0,0h5c0.1,0,0.2,0.1,0.2,0.2c0,0,0,0,0,0v0.9h3.1v-0.9c0-0.1,0.1-0.2,0.2-0.2c0,0,0,0,0,0h5
	c0.1,0,0.2,0.1,0.2,0.2c0,0,0,0,0,0v0.9h3.1v-0.9c0-0.1,0.1-0.2,0.2-0.2c0,0,0,0,0,0h5c0.1,0,0.2,0.1,0.2,0.2c0,0,0,0,0,0v0.9h3.1
	v-0.9c0-0.1,0.1-0.2,0.2-0.2c0,0,0,0,0,0h39.4c0.1,0,0.2,0.1,0.2,0.2c0,0,0,0,0,0v0.9h3.1v-0.9c0-0.1,0.1-0.2,0.2-0.2c0,0,0,0,0,0h5
	c0.1,0,0.2,0.1,0.2,0.2v0.9h3.1v-0.9c0-0.1,0.1-0.2,0.2-0.2c0,0,0,0,0,0h5c0.1,0,0.2,0.1,0.2,0.2c0,0,0,0,0,0v0.9h3.1v-0.9
	c0-0.1,0.1-0.2,0.2-0.2c0,0,0,0,0,0h5c0.1,0,0.2,0.1,0.2,0.2c0,0,0,0,0,0v0.9h3.1v-0.9c0-0.1,0.1-0.2,0.2-0.2c0,0,0,0,0,0h5
	c0.1,0,0.2,0.1,0.2,0.2v0.9h3.1v-0.9c0-0.1,0.1-0.2,0.2-0.2c0,0,0,0,0,0h5c0.1,0,0.2,0.1,0.2,0.2c0,0,0,0,0,0v0.9h3.1v-0.9
	c0-0.1,0.1-0.2,0.2-0.2c0,0,0,0,0,0h5c0.1,0,0.2,0.1,0.2,0.2c0,0,0,0,0,0v0.9h14.7C319.1,345.3,321.4,347.3,321.4,349.7
	C321.4,349.7,321.4,349.7,321.4,349.7z"/>
<rect x="95.3" y="353.3" class="st18" width="274.7" height="0.7"/>
<path class="st18" d="M307.9,266.1h-62.4V265h-28.3v1.1h-62.6c-2.3,0-4.2,1.6-4.2,3.7l0,0v74.5c0,2,1.9,3.7,4.2,3.7h153.3
	c2.3,0,4.2-1.6,4.2-3.7v-74.5C312.1,267.8,310.3,266.1,307.9,266.1z"/>
<ellipse class="st19" cx="231.4" cy="292.1" rx="9.4" ry="8.2"/>
<ellipse class="st15" cx="228.4" cy="295.1" rx="9.4" ry="8.2"/>
<rect x="102.8" y="350" class="st15" width="10.5" height="9.2"/>
<path class="st18" d="M106.9,342.8v11.1h12.7v-11.1H106.9z M119.1,353.4h-11.6v-10.1h11.6V353.4z"/>
<rect x="345.7" y="350" class="st15" width="10.5" height="9.2"/>
<path class="st18" d="M349.8,342.8v11.1h12.7v-11.1H349.8z M362,353.4h-11.6v-10.1H362V353.4z"/>
<ellipse class="st17" cx="108.1" cy="183.1" rx="29.7" ry="25.9"/>
<path class="st18" d="M118.5,152.3c-2.7-0.3-5.4-0.3-8.1,0c-12.2,1.4-22.4,8.9-26.1,19.2c-0.8,2.3-1.3,4.7-1.4,7.1c0,0.3,0,0.7,0,1
	c0,15.2,14.1,27.5,31.5,27.5c0.7,0,1.3,0,2-0.1c1.6-0.1,3.1-0.3,4.6-0.6c17-3.2,27.9-17.8,24.2-32.7
	C142.4,162.4,131.7,153.8,118.5,152.3L118.5,152.3z M124.3,204.9L124.3,204.9c-2.5,0.8-5.2,1.2-7.9,1.4c-0.7,0-1.3,0.1-2,0.1
	c-16.9,0-30.6-12-30.6-26.7c0-0.3,0-0.7,0-1c0.6-14.3,14.2-25.7,30.6-25.7c16.9,0,30.6,12,30.6,26.7
	C145.1,191,136.7,201.2,124.3,204.9L124.3,204.9z"/>
<rect x="114" y="154.4" class="st18" width="0.9" height="5.5"/>
<polygon class="st18" points="93.7,162.1 94.3,161.5 98.8,165.4 98.2,165.9 "/>
<rect x="85.6" y="179.2" class="st18" width="6.3" height="0.8"/>
<polygon class="st18" points="94.3,197.6 93.7,197.1 98.2,193.2 98.8,193.7 "/>
<polygon class="st18" points="130.7,165.9 130,165.4 134.5,161.5 135.1,162.1 "/>
<rect x="136.9" y="179.2" class="st18" width="6.3" height="0.8"/>
<polygon class="st18" points="130,193.7 130.7,193.2 135.1,197.1 134.5,197.6 "/>
<rect x="114" y="199.2" class="st18" width="0.9" height="5.5"/>
<path class="st18" d="M115.8,178c-0.8-0.5-1.9-0.5-2.7,0c-0.3,0.2-0.5,0.4-0.6,0.7c-0.6,1-0.2,2.1,1,2.7c1.1,0.5,2.5,0.1,3-0.8
	C116.9,179.6,116.7,178.6,115.8,178L115.8,178z M114.4,180.7c-0.7,0-1.3-0.5-1.4-1.2c0-0.2,0.1-0.5,0.2-0.7c0.4-0.5,1.3-0.7,1.9-0.3
	c0.6,0.4,0.8,1.1,0.3,1.6C115.3,180.5,114.9,180.7,114.4,180.7L114.4,180.7z"/>
<rect x="110.4" y="145.4" class="st18" width="8.1" height="7.1"/>
<ellipse class="st18" cx="114.4" cy="143.2" rx="10.8" ry="3.3"/>
<rect x="113.1" y="164.6" class="st18" width="2.7" height="13.4"/>
<rect x="72.7" y="205.9" class="st18" width="84.7" height="0.8"/>
<path class="st15" d="M129.1,329.9c0.3,10.4-6.6,14.3-15.4,14.5c-0.2,0-0.4,0-0.6,0c-0.4,0-0.8,0-1.2,0c-7.9-0.3-14.2-4-14.6-13.7
	c-0.3-10.1,14-23.1,15-24.1l0,0c0,0,0.1-0.1,0.1-0.1S128.8,319.4,129.1,329.9z"/>
<path class="st18" d="M113,342.8l5.6-7.2l-5.6,8l0,0.8c-0.4,0-0.8,0-1.2,0l0.3-10.5l0-0.1l0,0l0-1l-6.1-7.7l6.1,7l0,0.2l0.2-7.9
	l-5.3-8l5.3,6.6l-0.1-16.4l0-0.1l0,0.1l0.4,12.9l4.8-5.2l-4.8,6.4l0.1,7.1l4.4-6.9l-4.4,7.9l0.1,3.9l6.4-9.6l-6.4,11L113,342.8z"/>
<path class="st15" d="M372,329.9c0.3,10.4-6.6,14.3-15.4,14.5c-0.2,0-0.4,0-0.6,0c-0.4,0-0.8,0-1.2,0c-7.9-0.3-14.2-4-14.6-13.7
	c-0.3-10.1,14-23.1,15-24.1l0,0c0,0,0.1-0.1,0.1-0.1S371.6,319.4,372,329.9z"/>
<path class="st18" d="M355.9,342.8l5.6-7.2l-5.6,8l0,0.8c-0.4,0-0.8,0-1.2,0l0.3-10.5l0-0.1l0,0l0-1l-6.1-7.7l6.1,7l0,0.2l0.2-7.9
	l-5.3-8l5.3,6.6l-0.1-16.4l0-0.1l0,0.1l0.4,12.9l4.8-5.2l-4.8,6.4l0.1,7.1l4.4-6.9l-4.4,7.9l0.1,3.9l6.4-9.6l-6.4,11L355.9,342.8z"
	/>
</svg>
